<?xml version="1.0" standalone="no"?>
<!DOCTYPE svg PUBLIC "-//W3C//DTD SVG 20010904//EN"
 "http://www.w3.org/TR/2001/REC-SVG-20010904/DTD/svg10.dtd">
<svg version="1.0" xmlns="http://www.w3.org/2000/svg"
 width="2000.000000pt" height="2000.000000pt" viewBox="0 0 2000.000000 2000.000000"
 preserveAspectRatio="xMidYMid meet">

<g transform="translate(0.000000,2000.000000) scale(0.100000,-0.100000)"
fill="#000000" stroke="none">
<path d="M0 10000 l0 -10000 10000 0 10000 0 0 10000 0 10000 -10000 0 -10000
0 0 -10000z m10305 6149 c346 -17 390 -20 405 -26 8 -4 74 -13 145 -19 72 -7
159 -18 195 -24 36 -6 110 -16 165 -23 55 -7 107 -16 115 -19 8 -4 33 -9 55
-12 165 -21 202 -27 217 -36 10 -6 33 -10 52 -10 19 0 37 -4 40 -9 3 -4 38
-12 78 -16 40 -3 78 -10 83 -15 11 -8 32 -13 135 -30 59 -10 87 -18 130 -40 9
-4 39 -11 68 -15 29 -4 54 -11 58 -16 3 -5 18 -9 34 -9 16 0 31 -4 34 -9 3 -5
22 -12 42 -16 20 -3 44 -10 53 -15 9 -4 43 -16 76 -26 33 -10 64 -22 70 -26 5
-4 19 -8 31 -8 13 0 26 -4 29 -10 3 -5 13 -10 22 -10 8 0 29 -6 46 -14 18 -7
48 -21 69 -30 20 -9 41 -16 47 -16 6 0 19 -4 29 -9 9 -5 37 -17 62 -27 25 -10
57 -26 72 -36 14 -10 33 -18 41 -18 18 0 449 -214 469 -232 7 -7 42 -28 78
-46 74 -37 153 -82 160 -92 3 -3 21 -14 40 -24 19 -9 55 -30 80 -46 25 -16 54
-34 65 -40 11 -5 45 -28 75 -50 30 -22 73 -50 95 -62 22 -11 42 -23 45 -27 3
-3 14 -11 25 -17 20 -11 20 -23 23 -1403 l2 -1391 -1734 0 -1733 0 -5 306 c-4
209 -9 309 -17 317 -6 6 -11 30 -11 54 0 24 -4 51 -9 61 -5 9 -17 52 -27 95
-10 43 -21 80 -26 83 -4 3 -8 15 -8 27 0 19 -11 58 -40 142 -42 123 -134 235
-234 284 -101 48 -137 61 -177 61 -21 0 -41 5 -44 10 -8 13 -227 13 -240 1 -6
-5 -30 -11 -55 -14 -133 -14 -220 -57 -327 -160 -46 -44 -83 -86 -83 -93 0 -8
-4 -14 -9 -14 -12 0 -71 -117 -71 -140 0 -10 -4 -22 -10 -25 -5 -3 -10 -17
-10 -31 0 -14 -4 -34 -10 -44 -22 -41 -49 -335 -34 -368 4 -10 14 -55 21 -102
21 -132 25 -150 34 -156 5 -3 9 -12 9 -21 0 -16 30 -85 41 -93 3 -3 10 -16 14
-30 19 -63 186 -250 223 -250 5 0 15 -7 22 -16 8 -8 27 -22 44 -30 17 -8 42
-21 56 -28 14 -8 59 -29 100 -47 41 -19 77 -36 80 -40 9 -9 78 -39 92 -39 17
0 86 -24 94 -33 4 -4 18 -7 32 -7 13 0 38 -6 55 -14 18 -7 48 -21 69 -30 20
-9 43 -16 51 -16 9 0 19 -4 22 -10 3 -5 19 -10 35 -10 16 0 32 -4 35 -10 3 -5
18 -10 33 -10 15 -1 38 -7 52 -15 14 -8 37 -14 52 -15 15 0 29 -4 32 -9 3 -5
33 -12 66 -16 33 -4 63 -11 66 -16 3 -5 16 -9 30 -9 31 0 122 -29 130 -41 3
-5 25 -9 50 -9 24 0 52 -4 62 -9 26 -14 118 -41 141 -41 11 0 22 -4 25 -9 3
-4 30 -11 61 -15 31 -3 63 -10 73 -15 31 -16 67 -29 122 -45 30 -9 64 -21 75
-26 11 -5 43 -14 70 -19 95 -19 110 -23 142 -37 17 -8 36 -14 42 -14 6 0 19
-4 29 -9 41 -21 70 -30 112 -37 24 -3 51 -10 60 -14 34 -18 89 -40 99 -40 6 0
25 -8 43 -18 18 -10 47 -22 63 -26 17 -3 48 -15 70 -26 22 -10 67 -26 100 -36
33 -10 69 -23 80 -31 11 -7 27 -13 37 -13 10 0 32 -8 50 -18 18 -10 46 -22 62
-26 17 -4 42 -16 57 -27 15 -10 34 -19 43 -19 8 0 50 -18 92 -40 43 -22 82
-40 87 -40 13 0 316 -150 352 -175 33 -23 46 -30 101 -63 49 -28 84 -51 118
-77 15 -11 43 -33 64 -48 54 -41 280 -240 345 -304 30 -31 166 -183 182 -204
6 -8 34 -42 63 -75 28 -34 52 -65 52 -68 0 -7 41 -68 51 -76 7 -5 98 -193 109
-225 4 -11 15 -47 25 -80 10 -33 22 -64 27 -69 4 -6 8 -18 8 -28 0 -10 4 -26
9 -36 9 -16 19 -49 55 -177 9 -33 21 -74 26 -91 6 -17 10 -40 10 -52 0 -11 4
-23 9 -26 5 -3 12 -32 16 -63 4 -32 10 -62 15 -68 13 -18 23 -58 39 -170 6
-38 15 -97 21 -130 6 -33 15 -127 21 -210 5 -82 14 -158 19 -167 14 -24 13
-715 0 -723 -6 -3 -10 -57 -11 -123 -1 -154 -19 -341 -54 -557 -9 -55 -18
-118 -21 -140 -4 -22 -10 -44 -14 -50 -4 -5 -11 -35 -15 -65 -4 -30 -11 -61
-15 -70 -5 -8 -13 -35 -20 -60 -21 -81 -93 -305 -102 -314 -4 -6 -8 -19 -8
-29 0 -20 -34 -105 -76 -192 -13 -28 -24 -55 -24 -61 0 -18 -155 -320 -183
-357 -15 -19 -32 -48 -39 -64 -7 -15 -26 -46 -43 -68 -16 -21 -38 -55 -47 -75
-24 -47 -39 -70 -65 -96 -13 -11 -23 -26 -23 -31 0 -5 -11 -20 -25 -33 -14
-13 -25 -28 -25 -33 0 -5 -22 -35 -50 -67 -28 -32 -50 -62 -50 -67 0 -5 -29
-38 -65 -73 -36 -35 -65 -69 -65 -74 0 -13 -41 -56 -53 -56 -6 0 -38 -26 -73
-57 -92 -85 -194 -166 -236 -188 -21 -11 -38 -23 -38 -27 0 -5 -9 -8 -19 -8
-10 0 -21 -7 -25 -15 -3 -8 -12 -15 -19 -15 -8 0 -20 -6 -27 -14 -6 -8 -45
-31 -86 -51 -41 -20 -74 -39 -74 -43 0 -4 -21 -15 -48 -25 -26 -11 -87 -39
-137 -63 -49 -24 -95 -44 -102 -44 -6 0 -24 -6 -40 -14 -15 -8 -48 -22 -73
-31 -25 -9 -53 -21 -62 -26 -10 -5 -27 -9 -37 -9 -11 0 -22 -4 -25 -9 -4 -5
-24 -12 -46 -16 -22 -4 -42 -11 -46 -16 -3 -5 -16 -9 -29 -9 -13 0 -27 -4 -30
-10 -3 -5 -28 -12 -56 -16 -27 -4 -52 -11 -55 -15 -3 -5 -18 -9 -34 -9 -16 0
-31 -4 -34 -9 -3 -5 -33 -12 -66 -16 -33 -4 -63 -11 -66 -16 -3 -5 -22 -9 -43
-9 -20 0 -41 -4 -47 -10 -5 -5 -42 -12 -82 -16 -40 -4 -75 -11 -78 -15 -3 -5
-25 -9 -50 -9 -24 0 -52 -4 -62 -10 -9 -5 -60 -15 -112 -20 -52 -6 -126 -15
-165 -21 -121 -17 -247 -27 -342 -28 -50 -1 -95 -5 -98 -11 -4 -6 -66 -10
-154 -10 -87 0 -151 -4 -157 -10 -17 -17 -1151 3 -1168 20 -6 6 -57 10 -116
11 -114 1 -264 12 -375 28 -38 6 -113 15 -165 20 -52 6 -106 13 -120 17 -37 8
-122 22 -232 36 -53 7 -100 16 -104 21 -4 4 -26 7 -49 7 -23 0 -45 3 -49 7 -4
5 -42 13 -84 20 -42 6 -97 16 -122 22 -121 27 -199 43 -235 48 -22 3 -44 9
-50 13 -5 5 -36 11 -68 15 -31 4 -60 11 -63 16 -3 5 -18 9 -34 9 -16 0 -31 4
-34 9 -3 4 -26 11 -52 15 -26 3 -52 10 -58 14 -6 5 -29 13 -51 20 -22 6 -67
19 -100 28 -33 9 -64 21 -70 26 -5 4 -15 8 -23 8 -8 0 -28 6 -45 14 -18 8 -53
21 -78 30 -26 8 -63 24 -83 35 -20 12 -41 21 -47 21 -12 0 -365 175 -474 235
-38 21 -73 44 -78 51 -4 7 -20 15 -36 19 -16 3 -37 15 -47 26 -9 10 -23 19
-31 19 -7 0 -13 4 -13 10 0 5 -16 16 -35 24 -20 9 -57 33 -83 56 -27 22 -51
40 -55 40 -9 0 -81 51 -157 110 -36 28 -80 60 -97 72 l-33 20 0 1619 0 1619
1823 -2 1822 -3 2 -540 c2 -308 7 -549 12 -560 5 -11 12 -64 15 -118 4 -54 10
-106 15 -115 17 -33 30 -67 36 -97 15 -68 86 -190 148 -252 34 -35 66 -63 71
-63 5 0 18 -7 28 -17 48 -44 184 -103 236 -103 11 0 24 -4 27 -10 3 -5 23 -10
43 -10 20 0 42 -4 49 -8 17 -10 274 5 286 17 6 6 17 11 24 11 14 0 120 48 142
65 42 31 130 125 144 155 4 8 20 35 36 60 46 70 91 160 91 179 0 10 3 21 7 25
13 13 33 82 39 136 4 30 10 60 14 65 24 32 32 337 12 450 -6 33 -17 96 -25
140 -13 75 -17 90 -37 140 -4 11 -16 47 -26 80 -38 122 -110 251 -186 330 -39
41 -75 75 -80 75 -5 0 -19 10 -31 23 -12 13 -40 31 -62 41 -22 10 -47 24 -55
31 -27 22 -260 135 -350 170 -25 9 -62 26 -83 36 -20 10 -54 21 -75 25 -20 4
-39 10 -42 13 -11 13 -51 31 -70 31 -17 0 -91 21 -130 37 -8 4 -42 13 -75 20
-33 8 -80 18 -105 24 -25 5 -81 15 -125 21 -44 6 -91 18 -105 28 -14 9 -51 21
-84 25 -32 4 -74 15 -93 26 -19 11 -55 22 -79 26 -25 3 -47 10 -50 14 -3 5
-16 9 -29 9 -13 0 -26 4 -29 9 -3 4 -27 11 -53 15 -50 7 -118 27 -129 39 -4 4
-15 7 -25 7 -9 0 -59 14 -109 30 -50 17 -100 30 -111 30 -11 0 -27 4 -37 9
-27 14 -62 27 -127 47 -33 10 -67 21 -75 25 -8 4 -76 26 -150 50 -74 23 -139
46 -145 49 -5 4 -34 15 -62 24 -29 10 -55 22 -58 27 -4 5 -13 9 -22 9 -8 0
-30 7 -49 15 -19 8 -49 22 -68 30 -19 8 -37 15 -40 15 -3 0 -28 9 -54 21 -116
51 -159 69 -182 75 -14 4 -37 15 -52 25 -14 11 -33 19 -41 19 -13 0 -258 121
-322 159 -76 46 -103 61 -150 86 -27 15 -57 33 -66 41 -8 8 -19 14 -23 14 -5
0 -25 13 -46 30 -21 16 -42 30 -47 30 -6 0 -18 9 -28 20 -10 11 -23 20 -30 20
-6 0 -36 22 -67 50 -31 28 -60 50 -65 50 -5 0 -53 46 -107 103 -158 166 -184
198 -206 242 -5 11 -27 45 -49 75 -35 48 -191 346 -191 365 0 4 -7 21 -15 38
-20 45 -95 274 -95 292 0 8 -4 23 -9 33 -17 34 -33 94 -38 147 -3 30 -9 55
-13 55 -8 0 -11 12 -30 145 -7 44 -16 89 -21 100 -9 22 -13 58 -31 282 -7 83
-16 155 -20 159 -5 4 -8 92 -8 196 0 119 -4 188 -10 188 -6 0 -10 85 -10 234
0 146 4 237 10 241 6 3 10 46 10 94 0 48 4 91 9 97 5 5 11 45 14 89 10 148 27
286 37 310 4 11 13 63 19 115 6 52 14 115 17 140 3 25 8 52 11 60 7 17 31 128
39 180 3 19 9 44 14 55 5 11 16 45 25 75 9 30 20 64 25 75 5 11 12 36 16 55 3
19 10 41 14 50 4 8 43 86 85 173 42 86 81 157 85 157 4 0 10 8 14 18 7 22 23
47 64 99 17 23 32 45 32 48 0 15 69 92 215 239 141 142 202 196 223 196 5 0
34 26 64 58 70 73 203 192 215 192 5 0 20 11 33 25 13 14 29 25 36 25 7 0 17
6 21 13 10 15 36 32 89 57 23 11 46 26 53 33 6 8 30 22 53 32 24 10 50 24 58
31 19 16 151 84 162 84 5 0 41 15 81 34 39 18 92 41 117 51 25 10 59 24 77 31
17 8 36 14 42 14 6 0 19 4 29 9 33 17 68 30 127 47 33 9 65 20 70 24 6 4 32
11 59 15 27 3 56 10 65 15 34 18 59 24 146 37 50 7 115 17 145 22 73 14 244
41 300 48 25 3 50 9 55 13 6 5 58 12 115 16 58 4 110 10 115 14 11 9 83 16
285 28 175 11 1036 11 1265 1z"/>
</g>
</svg>
